<svg xmlns="http://www.w3.org/2000/svg" viewBox="0 0 200 200"><path fill="#FA4D56" d="M34.1,-59.4C45.9,-52.3,58.4,-46.6,64.9,-36.9C71.3,-27.3,71.7,-13.6,69.7,-1.2C67.6,11.3,63.1,22.5,57.3,33.3C51.5,44.2,44.5,54.5,34.7,60.7C25,66.9,12.5,68.9,0.8,67.5C-10.9,66.1,-21.8,61.4,-35.1,57.3C-48.5,53.2,-64.2,49.7,-75,40.2C-85.8,30.8,-91.7,15.4,-88.3,2C-84.9,-11.5,-72.3,-23,-61.3,-32.2C-50.4,-41.4,-41.1,-48.3,-31.2,-56.5C-21.3,-64.8,-10.6,-74.3,0.3,-74.8C11.2,-75.2,22.3,-66.6,34.1,-59.4Z" transform="translate(100 100)"/></svg>