<svg xmlns="http://www.w3.org/2000/svg" enable-background="new 0 0 32 32" viewBox="0 0 32 32"><path fill="#F5E6FE" d="M26,32H6c-3.314,0-6-2.686-6-6V6c0-3.314,2.686-6,6-6h20c3.314,0,6,2.686,6,6v20C32,29.314,29.314,32,26,32z"/><path d="M23.974,15.969l-0.012-0.005l0.033,0.033C24.01,15.997,23.974,15.969,23.974,15.969z"/><polygon points="23.515 16.345 23.515 16.375 23.578 16.401"/><path d="M17.955,18.851v0.002C17.964,18.858,17.96,18.854,17.955,18.851z"/><polygon fill="#D9A4FC" points="9.828 17.987 11.684 17.197 11.704 17.191 8.356 16.492"/><path fill="#D9A4FC" d="M12.591 16.209c.037 0 .073.002.11.005l-.005-.001c.035-.005.074-.007.115-.007s.08.003.12.008l-.005-.001 1.828-2.843c-.138-.143-.223-.337-.223-.551-.003-.027-.005-.059-.005-.09s.002-.064.005-.094l-.001.004-2.219-1.027-1.786 1.739 1.96 2.863C12.517 16.21 12.554 16.209 12.591 16.209zM18.773 13.609l.384-2.375-1.424-1.494-1.674 2.577v.036c.073.109.123.24.139.38l.001.004 2.337.991c.067-.052.146-.092.233-.117L18.773 13.609zM23.552 16.403l-3.955-1.692c-.111.146-.276.247-.464.272l-.003.001-.432 2.647c.124.126.202.298.203.489l2.428.51 2.225-2.214V16.403z"/><polygon fill="#BE63F9" points="21.529 13.518 19.826 14.216 24 15.992"/><path fill="#BE63F9" d="M11.878 16.723h.001c.046-.085.1-.159.161-.224L12.04 16.5l-1.85-2.765L8 15.864 11.878 16.723zM18.297 14.293c-.001-.015-.002-.032-.002-.05 0-.02.001-.039.003-.058v.003c.001-.002.001-.004.001-.006 0-.008-.003-.015-.007-.021l-2.184-.93c-.145.22-.392.364-.672.364-.009 0-.019 0-.027-.001h-.132l-1.807 2.794L18.297 14.293z"/><polygon fill="#BE63F9" points="10.226 18.329 11.049 19.147 11.984 17.694 11.921 17.631"/><path fill="#BE63F9" d="M18.807 18.609c-.08.101-.183.18-.303.228l-.005.002-.509 3.157 2.965-2.941c0 0-.007.013-.014.013v-.02L18.807 18.609zM19.316 13.671c.079.04.146.092.202.153l.001.001 1.57-.699-1.465-1.452-.328 1.976L19.316 13.671z"/><polygon points="18.298 14.293 18.297 14.293 18.298 14.3"/><path fill="#BE63F9" d="M15.933 24l.795-.789-3.607-5.231c-.11.052-.24.083-.376.084-.001 0-.003 0-.004 0-.106 0-.209-.018-.303-.051l.007.002-1.032 1.502L15.933 24zM13.582 16.933c.023.035.045.076.066.118l.003.007 3.928.81c.114-.196.315-.33.548-.349h.003l.426-2.605-.09-.077L13.582 16.933zM15.967 8l-3.279 3.22c0 0-.007.035 0 .042l2.163.922c.142-.118.326-.189.527-.189.011 0 .021 0 .032.001h-.001c.095.001.186.016.272.044l-.007-.002 1.688-2.64L15.967 8z"/><path fill="#D9A4FC" d="M17.545,18.362l-0.001-0.005l-3.976-0.817l-0.056,0.091l3.607,5.225l0.216-0.217l0.614-3.793c0,0,0.004,0.003,0.007,0.005v-0.018C17.752,18.747,17.6,18.574,17.545,18.362z"/></svg>